<svg xmlns="http://www.w3.org/2000/svg" width="19.055" height="18.088" viewBox="0 0 19.055 18.088">
  <g id="Group_167" data-name="Group 167" transform="translate(-1723.428 -466.575)">
    <path id="Path_41" data-name="Path 41" d="M784.346,646.044H775.09a3.8,3.8,0,0,1-3.841-3.757v-11.54a3.8,3.8,0,0,1,3.841-3.757h5.021a.706.706,0,1,1,0,1.411H775.09a2.391,2.391,0,0,0-2.43,2.346v11.54a2.392,2.392,0,0,0,2.43,2.346h9.256a2.392,2.392,0,0,0,2.429-2.346v-5.244a.706.706,0,1,1,1.411,0v5.244A3.8,3.8,0,0,1,784.346,646.044Z" transform="translate(2369.472 -304.674) rotate(90)"/>
    <path id="Path_42" data-name="Path 42" d="M793.324,634.229h0a.706.706,0,0,1-.7-.71l.025-4.646L788,628.846a.706.706,0,0,1,0-1.411h0l5.352.03a.706.706,0,0,1,.7.71l-.03,5.352A.706.706,0,0,1,793.324,634.229Z" transform="translate(2369.604 -309.396) rotate(90)"/>
    <path id="Path_43" data-name="Path 43" d="M785.781,635.891a.706.706,0,0,1-.5-1.208l6.535-6.463a.706.706,0,1,1,.992,1l-6.535,6.463A.708.708,0,0,1,785.781,635.891Z" transform="translate(2369.774 -308.742) rotate(90)"/>
  </g>
</svg>
