<svg xmlns="http://www.w3.org/2000/svg" width="17.05" height="22.356" viewBox="0 0 17.05 22.356">
  <g id="Group_69" data-name="Group 69" transform="translate(-509.475 -562.836)">
    <path id="Path_81" data-name="Path 81" d="M525.516,567.854a.884.884,0,0,1-.884-.884V566.5h-1.769a.884.884,0,0,1,0-1.768h2.653a.884.884,0,0,1,.884.884v1.356A.884.884,0,0,1,525.516,567.854Z" fill="#fff" stroke="#1e1f21" stroke-width="0.25"/>
    <path id="Path_82" data-name="Path 82" d="M525.029,585.067H510.484a.884.884,0,0,1-.884-.885V565.614a.884.884,0,0,1,.884-.884H513.1a.884.884,0,1,1,0,1.768h-1.732v16.8h13.661a.885.885,0,1,1,0,1.769Z" fill="#fff" stroke="#1e1f21" stroke-width="0.25"/>
    <path id="Path_83" data-name="Path 83" d="M523.874,585.067h1.642a.884.884,0,0,0,.884-.885V565.614a.884.884,0,0,0-.884-.884H522.9a.884.884,0,1,0,0,1.768h1.732v16.8h-.758a.885.885,0,0,0,0,1.769Z" fill="#fff" stroke="#1e1f21" stroke-width="0.25"/>
    <path id="Path_84" data-name="Path 84" d="M521.095,568.267h-6.19a1.771,1.771,0,0,1-1.768-1.769V564.73a1.771,1.771,0,0,1,1.768-1.769h6.19a1.771,1.771,0,0,1,1.768,1.769V566.5A1.771,1.771,0,0,1,521.095,568.267Zm-6.19-3.537V566.5H521.1V564.73Z" fill="#fff" stroke="#1e1f21" stroke-width="0.25"/>
  </g>
</svg>
