<svg xmlns="http://www.w3.org/2000/svg" width="18.612" height="13.075" viewBox="0 0 18.612 13.075">
  <g id="Group_91" data-name="Group 91" transform="translate(-1708 -441.925)">
    <g id="Group_89" data-name="Group 89" transform="translate(1708 441.925)">
      <path id="Path_92" data-name="Path 92" d="M1297.456,230.152v-.323c.71-1.054,5.053-7.026,10.814-4.542a.62.62,0,1,0,.491-1.139c-7.151-3.086-12.4,5.082-12.45,5.165l-.1.151v1.055l.1.151a15.907,15.907,0,0,0,2.9,3.263.62.62,0,1,0,.8-.944A15.266,15.266,0,0,1,1297.456,230.152Z" transform="translate(-1296.215 -223.452)"/>
      <path id="Path_93" data-name="Path 93" d="M1318.276,230.746a20.353,20.353,0,0,0-3.014-3.259.62.62,0,1,0-.8.946,18.794,18.794,0,0,1,2.7,2.9v.277c-3.469,4.517-7.062,6.081-10.682,4.651a.621.621,0,1,0-.457,1.154,8.207,8.207,0,0,0,3.025.592c2.627,0,5.844-1.331,9.231-5.813l.125-.166v-1.112Z" transform="translate(-1299.788 -224.928)"/>
      <path id="Path_94" data-name="Path 94" d="M1312.534,231.878a3.462,3.462,0,0,0-.049-.581,3.4,3.4,0,0,0-.469-1.2s0-.011-.006-.016l-.017-.024a3.437,3.437,0,0,0-.209-.289c-.029-.036-.062-.069-.092-.1-.051-.058-.1-.115-.156-.169-.015-.016-.028-.033-.043-.048s-.031-.022-.046-.036a3.471,3.471,0,0,0-.454-.355l-.1-.063a3.37,3.37,0,0,0-.5-.249l-.091-.035a3.4,3.4,0,0,0-.341-.106c-.008,0-.012-.007-.02-.009l-.04-.007c-.053-.012-.107-.021-.16-.03l-.058-.011c-.048-.007-.095-.019-.143-.024l-.022,0a3.283,3.283,0,0,0-.359-.021l-.032,0c-.02,0-.04,0-.06,0h-.058c-.062,0-.124,0-.187.01s-.125.015-.186.024c-.039.006-.078.008-.117.016,0,0-.007,0-.011,0a3.437,3.437,0,0,0-.721.216l-.025.012a3.355,3.355,0,0,0-.55.3c-.02.013-.038.029-.057.042a3.5,3.5,0,0,0-.463.393c-.008.008-.017.014-.025.022a.25.25,0,0,0-.014.021,3.4,3.4,0,0,0-.938,2.343.8.8,0,0,1,.055.609,3.389,3.389,0,0,0,.981,1.834c0,.006.007.013.012.018s.031.022.045.035a3.48,3.48,0,0,0,.456.357l.1.061a3.39,3.39,0,0,0,.5.25l.09.035a3.379,3.379,0,0,0,.561.154l.058.01a3.35,3.35,0,0,0,.543.047l.012,0c.021,0,.04,0,.06,0h.027l.032,0c.062,0,.125,0,.187-.009s.125-.016.187-.024c.039-.006.077-.008.116-.016,0,0,.007,0,.011,0,.034-.006.066-.011.1-.019h0a3.392,3.392,0,0,0,.622-.2l.024-.012a3.408,3.408,0,0,0,.552-.3c.019-.012.035-.027.053-.04a3.461,3.461,0,0,0,.466-.4c.008-.008.017-.013.025-.021s.007-.014.013-.02a3.4,3.4,0,0,0,.927-2.112c0-.008.006-.014.006-.022,0-.032,0-.065,0-.1s.005-.074.005-.111C1312.539,231.9,1312.534,231.888,1312.534,231.878Zm-2.024,1.689c-.055.045-.106.095-.165.135s-.107.059-.161.089a2,2,0,0,1-.205.112,2.049,2.049,0,0,1-.231.074c-.056.017-.109.04-.167.052s-.143.017-.216.025l-.042,0c-.064.006-.128.015-.191.015s-.152-.009-.228-.017-.131-.012-.194-.024-.138-.036-.206-.056-.136-.04-.2-.066-.117-.058-.176-.088a2.216,2.216,0,0,1-.2-.111,2.014,2.014,0,0,1-.164-.129,2.148,2.148,0,0,1-.771-1.287.633.633,0,0,0-.075-.188.611.611,0,0,0,.04-.2,2.164,2.164,0,0,1,.627-1.522c.05-.051.107-.092.161-.137a2.152,2.152,0,0,1,.166-.137c.05-.034.1-.057.156-.086a1.255,1.255,0,0,1,.434-.185c.058-.018.114-.042.175-.055a2.026,2.026,0,0,1,.213-.024l.047,0c.063-.006.127-.015.189-.015.037,0,.073.006.11.008a2.25,2.25,0,0,1,.342.042c.059.012.117.03.175.048s.136.04.2.066.117.058.176.088a2.268,2.268,0,0,1,.2.111c.057.038.11.085.164.129s.111.087.161.136a2.174,2.174,0,0,1,.019,3.06C1310.622,233.48,1310.564,233.521,1310.51,233.567Z" transform="translate(-1299.821 -225.366)"/>
    </g>
  </g>
</svg>
