<svg xmlns="http://www.w3.org/2000/svg" width="46.425" height="47.73" viewBox="0 0 46.425 47.73">
  <g id="Group_106" data-name="Group 106" transform="translate(0 0)">
    <g id="Layer_1-2" data-name="Layer 1-2" transform="translate(0 0)">
      <path id="Path_96" data-name="Path 96" d="M-401.288-22l5.227,9.068a23.735,23.735,0,0,1-28.482-.181,23.831,23.831,0,0,1-6.4-30.69,23.666,23.666,0,0,1,25.556-11.67c-.2.444-4.729,9.83-4.729,9.83s-.358.023-.56.027a12.756,12.756,0,0,0-5.678,1.536,13.506,13.506,0,0,0-7.169,10.427,13.165,13.165,0,0,0,.893,6.546,13.379,13.379,0,0,0,3.1,4.618,13.219,13.219,0,0,0,7.455,3.677,12.946,12.946,0,0,0,7.811-1.232,15.886,15.886,0,0,0,2.624-1.675C-401.532-21.791-401.429-21.887-401.288-22Z" transform="translate(434.002 56.001)" fill="#ff492c"/>
      <path id="Path_97" data-name="Path 97" d="M35.989-24.439c-.446-.439-.859-.843-1.27-1.251-.245-.243-.482-.5-.733-.732-.09-.086-.2-.2-.2-.2s.086-.181.122-.256a5.6,5.6,0,0,1,2.129-2.232,5.916,5.916,0,0,1,3.31-.914,6.194,6.194,0,0,1,4.062,1.406,3.889,3.889,0,0,1,1.39,2.8A4.533,4.533,0,0,1,42.6-21.464c-.914.6-1.9,1.055-2.887,1.6a5.9,5.9,0,0,0-1.544,1.11,1.925,1.925,0,0,0-.491,1.061l7.08-.009v3.153H33.825v-.3a8.954,8.954,0,0,1,.848-4.415,7.294,7.294,0,0,1,2.886-2.964c.939-.561,1.927-1.038,2.867-1.6a1.783,1.783,0,0,0,.987-1.58,1.444,1.444,0,0,0-1.11-1.36,3.445,3.445,0,0,0-3.92,1.656C36.264-24.907,36.143-24.7,35.989-24.439Z" transform="translate(-3.258 31.723)" fill="#ff492c"/>
      <path id="Path_98" data-name="Path 98" d="M-63.233,266.093l-5.966-10.3H-81.005l-6,10.41h11.893l5.869,10.254Z" transform="translate(109.658 -235.44)" fill="#ff492c"/>
    </g>
  </g>
</svg>
