<svg xmlns="http://www.w3.org/2000/svg" width="14.666" height="21.35" viewBox="0 0 14.666 21.35">
  <g id="Group_104" data-name="Group 104" transform="translate(-1371.776 -481.69)">
    <path id="Path_95" data-name="Path 95" d="M1379.11,496.356a7.333,7.333,0,1,1,7.333-7.332A7.342,7.342,0,0,1,1379.11,496.356Zm0-13.249a5.916,5.916,0,1,0,5.916,5.917A5.923,5.923,0,0,0,1379.11,483.107Z" fill="#fff"/>
    <path id="Path_96" data-name="Path 96" d="M1383.463,505.153h-6.352a.708.708,0,0,1,0-1.417h6.352a.708.708,0,0,1,0,1.417Z" transform="translate(-1.349 -6.428)" fill="#fff"/>
    <path id="Path_97" data-name="Path 97" d="M1383.463,508.2h-6.352a.708.708,0,0,1,0-1.417h6.352a.708.708,0,0,1,0,1.417Z" transform="translate(-1.349 -7.316)" fill="#fff"/>
    <path id="Path_98" data-name="Path 98" d="M1382.981,511.244h-4.716a.708.708,0,0,1,0-1.417h4.716a.708.708,0,0,1,0,1.417Z" transform="translate(-1.686 -8.204)" fill="#fff"/>
  </g>
</svg>
