<svg xmlns="http://www.w3.org/2000/svg" width="12.307" height="21.775" viewBox="0 0 12.307 21.775">
  <g id="Group_105" data-name="Group 105" transform="translate(-1302.747 -579.185)">
    <path id="Path_99" data-name="Path 99" d="M1314.306,600.96a.748.748,0,0,1-.747-.747V582.619c0-1.11-.557-1.939-1.055-1.939H1305.3c-.5,0-1.055.829-1.055,1.939v14.906c0,1.11.557,1.94,1.055,1.94h3.681c.5,0,1.055-.83,1.055-1.94V586.254c0-1.11-.557-1.939-1.055-1.939h-.451c-.5,0-1.055.829-1.055,1.939v9.262a.748.748,0,0,1-1.5,0v-9.262c0-1.926,1.121-3.434,2.55-3.434h.451c1.429,0,2.55,1.508,2.55,3.434v11.271c0,1.926-1.12,3.435-2.55,3.435H1305.3c-1.43,0-2.55-1.508-2.55-3.435V582.619c0-1.926,1.12-3.434,2.55-3.434h7.207c1.43,0,2.55,1.508,2.55,3.434v17.594A.747.747,0,0,1,1314.306,600.96Z" transform="translate(0)" fill="#fff"/>
  </g>
</svg>
