<svg xmlns="http://www.w3.org/2000/svg" width="19" height="19" viewBox="0 0 19 19">
  <g id="Group_106" data-name="Group 106" transform="translate(-381.701 -329.023)">
    <path id="Path_100" data-name="Path 100" d="M397.124,349.369H386.893a2.195,2.195,0,0,1-2.192-2.192V334.754a.731.731,0,0,1,1.462,0v12.423a.731.731,0,0,0,.731.731h10.231a.731.731,0,0,0,.731-.731V334.754a.731.731,0,0,1,1.462,0v12.423A2.195,2.195,0,0,1,397.124,349.369Z" transform="translate(-0.808 -1.346)"/>
    <path id="Path_101" data-name="Path 101" d="M399.97,332.485H382.432a.731.731,0,0,1,0-1.462H399.97a.731.731,0,0,1,0,1.462Z" transform="translate(0 -0.538)"/>
    <path id="Path_102" data-name="Path 102" d="M396.278,330.485h-5.846a.731.731,0,0,1,0-1.462h5.846a.731.731,0,1,1,0,1.462Z" transform="translate(-2.154)"/>
    <path id="Path_103" data-name="Path 103" d="M390.432,346.523a.73.73,0,0,1-.731-.731v-8.038a.731.731,0,0,1,1.462,0v8.038A.731.731,0,0,1,390.432,346.523Z" transform="translate(-2.154 -2.154)"/>
    <path id="Path_104" data-name="Path 104" d="M394.432,346.523a.73.73,0,0,1-.731-.731v-8.038a.731.731,0,0,1,1.462,0v8.038A.731.731,0,0,1,394.432,346.523Z" transform="translate(-3.231 -2.154)"/>
    <path id="Path_105" data-name="Path 105" d="M398.432,346.523a.73.73,0,0,1-.731-.731v-8.038a.731.731,0,0,1,1.462,0v8.038A.731.731,0,0,1,398.432,346.523Z" transform="translate(-4.308 -2.154)"/>
  </g>
</svg>
