<svg xmlns="http://www.w3.org/2000/svg" width="16.714" height="19.5" viewBox="0 0 16.714 19.5">
  <g id="Group_166" data-name="Group 166" transform="translate(-1687.235 -466)">
    <path id="Path_46" data-name="Path 46" d="M744.984,652.989H730.128a.929.929,0,0,1-.929-.928V634.418a.928.928,0,0,1,.929-.929h10.214a.927.927,0,0,1,.64.255l4.643,4.411a.925.925,0,0,1,.289.673V652.06A.928.928,0,0,1,744.984,652.989Zm-13.928-1.857h13V639.227l-4.085-3.88h-8.915Z" transform="translate(958.036 -167.489)"/>
    <path id="Path_47" data-name="Path 47" d="M742.413,646.346h-9.286a.929.929,0,0,1,0-1.857h9.286a.929.929,0,0,1,0,1.857Z" transform="translate(957.821 -167.274)"/>
    <path id="Path_48" data-name="Path 48" d="M738.7,642.346h-5.571a.929.929,0,0,1,0-1.857H738.7a.929.929,0,0,1,0,1.857Z" transform="translate(957.821 -166.989)"/>
  </g>
</svg>
