<svg xmlns="http://www.w3.org/2000/svg" width="24" height="20" viewBox="0 0 24 20">
  <g id="Group_127" data-name="Group 127" transform="translate(-1008.299 -365.577)">
    <path id="Path_119" data-name="Path 119" d="M1021.7,383.777a.8.8,0,0,1-.566-.234l-5.6-5.6a.8.8,0,0,1,1.131-1.131l5.034,5.034,5.034-5.034a.8.8,0,0,1,1.131,1.131l-5.6,5.6A.8.8,0,0,1,1021.7,383.777Z" transform="translate(-1.4 -2.2)"/>
    <path id="Path_120" data-name="Path 120" d="M1023.1,380.777a.8.8,0,0,1-.8-.8v-13.6a.8.8,0,1,1,1.6,0v13.6A.8.8,0,0,1,1023.1,380.777Z" transform="translate(-2.8)"/>
    <path id="Path_121" data-name="Path 121" d="M1029.1,388.577h-17.6a3.2,3.2,0,0,1-3.2-3.2v-4a.8.8,0,0,1,1.6,0v4a1.6,1.6,0,0,0,1.6,1.6h17.6a1.6,1.6,0,0,0,1.6-1.6v-4a.8.8,0,0,1,1.6,0v4A3.2,3.2,0,0,1,1029.1,388.577Z" transform="translate(0 -3)"/>
  </g>
</svg>
