<svg id="Group_22" data-name="Group 22" xmlns="http://www.w3.org/2000/svg" xmlns:xlink="http://www.w3.org/1999/xlink" width="22.347" height="22.347" viewBox="0 0 22.347 22.347">
  <defs>
    <radialGradient id="radial-gradient" cx="0.5" cy="0.5" r="0.5" gradientUnits="objectBoundingBox">
      <stop offset="0" stop-color="#f7f7f7"/>
      <stop offset="1" stop-color="#dfdfdf"/>
    </radialGradient>
  </defs>
  <path id="Path_19" data-name="Path 19" d="M-12.544,1412.224a.745.745,0,0,1,.745.745v2.025a6.991,6.991,0,0,1,2.637,1.09l1.429-1.43a.742.742,0,0,1,.527-.218.74.74,0,0,1,.527.218l.814.813a.745.745,0,0,1,0,1.054l-1.429,1.429a6.991,6.991,0,0,1,1.09,2.637h2.025a.744.744,0,0,1,.744.744v1.152a.744.744,0,0,1-.744.744H-6.205a6.991,6.991,0,0,1-1.09,2.637l1.429,1.429a.745.745,0,0,1,0,1.054l-.814.814a.745.745,0,0,1-.527.218.748.748,0,0,1-.527-.218l-1.429-1.429a7.014,7.014,0,0,1-2.637,1.09v2.023a.744.744,0,0,1-.745.745H-13.7a.744.744,0,0,1-.745-.745v-2.023a7.023,7.023,0,0,1-2.638-1.09l-1.429,1.429a.747.747,0,0,1-.527.218.748.748,0,0,1-.527-.218l-.813-.814a.745.745,0,0,1,0-1.054l1.429-1.429a6.991,6.991,0,0,1-1.09-2.637h-2.025a.745.745,0,0,1-.745-.745v-1.151a.745.745,0,0,1,.745-.745h2.025a6.991,6.991,0,0,1,1.09-2.637l-1.429-1.429a.745.745,0,0,1,0-1.054l.813-.813a.742.742,0,0,1,.527-.218.741.741,0,0,1,.527.218l1.429,1.43a7,7,0,0,1,2.638-1.09v-2.025a.745.745,0,0,1,.745-.745h1.151m-.576,13.408a3.724,3.724,0,0,0,3.725-3.724,3.724,3.724,0,0,0-3.725-3.724,3.724,3.724,0,0,0-3.725,3.724,3.724,3.724,0,0,0,3.725,3.724m.576-14.9H-13.7a2.238,2.238,0,0,0-2.235,2.235v.883a8.332,8.332,0,0,0-.9.372l-.623-.623a2.22,2.22,0,0,0-1.581-.655,2.219,2.219,0,0,0-1.58.655l-.813.813a2.221,2.221,0,0,0-.655,1.581,2.218,2.218,0,0,0,.655,1.58l.623.624a8.393,8.393,0,0,0-.372.9h-.883a2.237,2.237,0,0,0-2.235,2.235v1.151a2.237,2.237,0,0,0,2.235,2.235h.883a8.393,8.393,0,0,0,.372.9l-.623.624a2.237,2.237,0,0,0,0,3.161l.813.814a2.222,2.222,0,0,0,1.58.654,2.222,2.222,0,0,0,1.581-.654l.623-.624a8.306,8.306,0,0,0,.9.372v.883a2.237,2.237,0,0,0,2.235,2.235h1.151a2.237,2.237,0,0,0,2.235-2.235v-.883a8.306,8.306,0,0,0,.9-.372l.623.624a2.222,2.222,0,0,0,1.58.654,2.222,2.222,0,0,0,1.581-.654l.813-.814a2.237,2.237,0,0,0,0-3.161l-.623-.624a8.456,8.456,0,0,0,.372-.9h.883a2.236,2.236,0,0,0,2.234-2.234v-1.152a2.236,2.236,0,0,0-2.234-2.234h-.883a8.456,8.456,0,0,0-.372-.9l.623-.624a2.218,2.218,0,0,0,.655-1.58,2.221,2.221,0,0,0-.655-1.581l-.813-.813a2.22,2.22,0,0,0-1.581-.655,2.219,2.219,0,0,0-1.58.655l-.623.623a8.332,8.332,0,0,0-.9-.372v-.883A2.238,2.238,0,0,0-12.544,1410.734Zm-.576,13.408a2.237,2.237,0,0,1-2.235-2.235,2.237,2.237,0,0,1,2.235-2.234,2.237,2.237,0,0,1,2.235,2.234A2.237,2.237,0,0,1-13.12,1424.142Z" transform="translate(24.294 -1410.734)" fill="url(#radial-gradient)"/>
</svg>
