<svg xmlns="http://www.w3.org/2000/svg" width="17.231" height="17.825" viewBox="0 0 17.231 17.825">
  <g id="Group_33" data-name="Group 33" transform="translate(-205.1 -1076.8)">
    <g id="Group_31" data-name="Group 31" transform="translate(205.1 1076.8)">
      <path id="Path_33" data-name="Path 33" d="M226.611,1081.454a.594.594,0,0,1-.594-.594v-3.466a.594.594,0,0,1,1.188,0v3.466A.594.594,0,0,1,226.611,1081.454Z" transform="translate(-213.589 -1076.8)"/>
      <path id="Path_34" data-name="Path 34" d="M211.778,1081.454a.594.594,0,0,1-.594-.594v-3.466a.594.594,0,0,1,1.188,0v3.466A.594.594,0,0,1,211.778,1081.454Z" transform="translate(-207.569 -1076.8)"/>
      <path id="Path_35" data-name="Path 35" d="M219.954,1095.843H207.477a2.379,2.379,0,0,1-2.377-2.377v-11.289a2.379,2.379,0,0,1,2.377-2.377h12.477a2.379,2.379,0,0,1,2.377,2.377v11.289A2.379,2.379,0,0,1,219.954,1095.843Zm-12.477-14.854a1.19,1.19,0,0,0-1.188,1.188v11.289a1.189,1.189,0,0,0,1.188,1.188h12.477a1.189,1.189,0,0,0,1.188-1.188v-11.289a1.19,1.19,0,0,0-1.188-1.188Z" transform="translate(-205.1 -1078.018)"/>
      <path id="Path_36" data-name="Path 36" d="M221.737,1086.988H205.694a.594.594,0,0,1,0-1.188h16.042a.594.594,0,0,1,0,1.188Z" transform="translate(-205.1 -1080.453)"/>
    </g>
    <g id="Group_32" data-name="Group 32" transform="translate(209.259 1086.663)">
      <rect id="Rectangle_37" data-name="Rectangle 37" width="1.782" height="1.188"/>
      <rect id="Rectangle_38" data-name="Rectangle 38" width="1.782" height="1.188" transform="translate(0 2.377)"/>
      <rect id="Rectangle_39" data-name="Rectangle 39" width="1.782" height="1.188" transform="translate(3.565)"/>
      <rect id="Rectangle_40" data-name="Rectangle 40" width="1.782" height="1.188" transform="translate(3.565 2.377)"/>
      <rect id="Rectangle_41" data-name="Rectangle 41" width="1.782" height="1.188" transform="translate(7.13)"/>
      <rect id="Rectangle_42" data-name="Rectangle 42" width="1.782" height="1.188" transform="translate(7.13 2.377)"/>
    </g>
  </g>
</svg>
