<svg xmlns="http://www.w3.org/2000/svg" width="16.12" height="15" viewBox="0 0 16.12 15">
  <g id="Group_45" data-name="Group 45" transform="translate(-1155.299 -438.267)" opacity="0.4">
    <path id="Path_66" data-name="Path 66" d="M1170.747,440.92h-14.776a.672.672,0,1,1,0-1.343h14.776a.672.672,0,1,1,0,1.343Z" transform="translate(0 -0.43)"/>
    <path id="Path_67" data-name="Path 67" d="M1170.747,449.92h-14.776a.672.672,0,1,1,0-1.343h14.776a.672.672,0,0,1,0,1.343Z" transform="translate(0 -3.385)"/>
    <path id="Path_68" data-name="Path 68" d="M1170.747,458.92h-14.776a.672.672,0,1,1,0-1.343h14.776a.672.672,0,1,1,0,1.343Z" transform="translate(0 -6.34)"/>
    <path id="Path_69" data-name="Path 69" d="M1172.91,439.655a1.388,1.388,0,1,1-1.388-1.388A1.388,1.388,0,0,1,1172.91,439.655Z" transform="translate(-4.871)"/>
    <circle id="Ellipse_3" data-name="Ellipse 3" cx="1.388" cy="1.388" r="1.388" transform="translate(1158.859 450.491)"/>
  </g>
</svg>
