<svg id="Group_112" data-name="Group 112" xmlns="http://www.w3.org/2000/svg" width="46.153" height="47.098" viewBox="0 0 46.153 47.098">
  <path id="Path_101" data-name="Path 101" d="M-300.149,83.711A23.653,23.653,0,0,0-313.49,95.4a23.43,23.43,0,0,0-2.046,5.919,23.575,23.575,0,0,0,2.044,15.227,23.724,23.724,0,0,0,6.4,7.863,23.437,23.437,0,0,0,8.557,4.315,25.166,25.166,0,0,0,12.047.13,21.271,21.271,0,0,0,9.641-5.016,21.387,21.387,0,0,0,5.958-9.776,27.67,27.67,0,0,0,.6-12.5q-11.08-.006-22.16,0c0,3.064,0,6.128,0,9.19q6.417,0,12.833,0a11.063,11.063,0,0,1-4.715,7.274,13.463,13.463,0,0,1-5.185,2.048,15.371,15.371,0,0,1-5.62-.018,13.833,13.833,0,0,1-5.243-2.264,14.632,14.632,0,0,1-5.4-7.231,14.264,14.264,0,0,1,0-9.17,14.611,14.611,0,0,1,3.418-5.552,14.019,14.019,0,0,1,7.033-3.906,13.947,13.947,0,0,1,6.914.281,12.763,12.763,0,0,1,5.077,2.983q2.172-2.159,4.333-4.329c.758-.776,1.554-1.519,2.288-2.316a22.793,22.793,0,0,0-7.578-4.7A23.813,23.813,0,0,0-300.149,83.711Z" transform="translate(316 -82.42)" fill="#fff"/>
  <g id="Group_108" data-name="Group 108" transform="translate(2.51 0)">
    <path id="Path_102" data-name="Path 102" d="M-283.624,83.711a23.813,23.813,0,0,1,15.863.139,22.792,22.792,0,0,1,7.578,4.7c-.734.8-1.531,1.54-2.288,2.316q-2.168,2.163-4.333,4.329a12.763,12.763,0,0,0-5.077-2.983,13.947,13.947,0,0,0-6.914-.281,14.019,14.019,0,0,0-7.033,3.906,14.611,14.611,0,0,0-3.418,5.552q-3.859-2.994-7.718-5.988A23.652,23.652,0,0,1-283.624,83.711Z" transform="translate(296.965 -82.42)" fill="#e94435"/>
  </g>
  <g id="Group_109" data-name="Group 109" transform="translate(0 12.977)">
    <path id="Path_103" data-name="Path 103" d="M-315.536,186.748a23.431,23.431,0,0,1,2.046-5.919q3.86,2.993,7.718,5.988a14.264,14.264,0,0,0,0,9.17q-3.857,2.994-7.716,5.988A23.575,23.575,0,0,1-315.536,186.748Z" transform="translate(316 -180.829)" fill="#f8bb15"/>
  </g>
  <g id="Group_110" data-name="Group 110" transform="translate(23.547 19.134)">
    <path id="Path_104" data-name="Path 104" d="M-137.43,227.526q11.08,0,22.16,0a27.671,27.671,0,0,1-.6,12.5,21.387,21.387,0,0,1-5.958,9.776c-2.491-1.942-4.992-3.872-7.483-5.815a11.063,11.063,0,0,0,4.715-7.274q-6.416,0-12.833,0C-137.434,233.653-137.429,230.589-137.43,227.526Z" transform="translate(137.431 -227.524)" fill="#547dbe"/>
  </g>
  <g id="Group_111" data-name="Group 111" transform="translate(2.507 28.135)">
    <path id="Path_105" data-name="Path 105" d="M-296.985,301.766q3.862-2.99,7.716-5.988a14.633,14.633,0,0,0,5.4,7.231,13.833,13.833,0,0,0,5.243,2.264,15.371,15.371,0,0,0,5.62.018,13.462,13.462,0,0,0,5.185-2.048c2.491,1.943,4.992,3.873,7.483,5.815a21.271,21.271,0,0,1-9.641,5.016,25.165,25.165,0,0,1-12.047-.13,23.437,23.437,0,0,1-8.557-4.315A23.724,23.724,0,0,1-296.985,301.766Z" transform="translate(296.985 -295.778)" fill="#34a751"/>
  </g>
</svg>
