<svg xmlns="http://www.w3.org/2000/svg" width="19.832" height="19" viewBox="0 0 19.832 19">
  <g id="Group_70" data-name="Group 70" transform="translate(-940.299 -580.573)">
    <path id="Path_76" data-name="Path 76" d="M943.352,599.574h-2.261a.791.791,0,0,1-.792-.792V581.369a.791.791,0,0,1,.792-.792h10.29a.792.792,0,0,1,0,1.583h-9.5v15.831h1.47a.792.792,0,1,1,0,1.583Z" transform="translate(0 -0.001)"/>
    <path id="Path_77" data-name="Path 77" d="M958.495,603.118h-2.261a.792.792,0,1,1,0-1.583h1.47v-3.166a.792.792,0,0,1,1.583,0v3.958A.791.791,0,0,1,958.495,603.118Z" transform="translate(-3.157 -3.545)"/>
    <path id="Path_78" data-name="Path 78" d="M946.928,599.619a.791.791,0,0,1-.791-.767l-.119-3.745a.794.794,0,0,1,.169-.515l6.038-7.656a.791.791,0,1,1,1.243.98l-5.858,7.43.079,2.516,2.466-.509,5.859-7.429a.791.791,0,0,1,1.243.98l-6.037,7.656a.788.788,0,0,1-.461.285l-3.67.759Z" transform="translate(-1.192 -1.264)"/>
    <path id="Path_79" data-name="Path 79" d="M960.728,588.271a.791.791,0,0,1-.487-.168l-3.8-2.971a.792.792,0,1,1,.975-1.247l3.8,2.971a.791.791,0,0,1-.488,1.415Z" transform="translate(-3.301 -0.655)"/>
    <path id="Path_80" data-name="Path 80" d="M963.144,585.127a.789.789,0,0,1-.488-.168l-3.8-2.971a.791.791,0,1,1,.974-1.247l3.8,2.971a.791.791,0,0,1-.488,1.415Z" transform="translate(-3.805)"/>
  </g>
</svg>
