<svg id="Group_26" data-name="Group 26" xmlns="http://www.w3.org/2000/svg" xmlns:xlink="http://www.w3.org/1999/xlink" width="21.602" height="17.133" viewBox="0 0 21.602 17.133">
  <defs>
    <radialGradient id="radial-gradient" cx="0.5" cy="0.5" r="0.569" gradientTransform="translate(0.103) scale(0.793 1)" gradientUnits="objectBoundingBox">
      <stop offset="0" stop-color="#f7f7f7"/>
      <stop offset="1" stop-color="#dfdfdf"/>
    </radialGradient>
  </defs>
  <path id="Path_28" data-name="Path 28" d="M-5.617,1274.78H-20.367a3.451,3.451,0,0,1-3.427-3.466V1260.36a2.7,2.7,0,0,1,2.685-2.713h5.166l1.341,2.04h8.984a3.45,3.45,0,0,1,3.426,3.465v8.161A3.45,3.45,0,0,1-5.617,1274.78Zm-15.491-15.643a1.212,1.212,0,0,0-1.2,1.223v10.954a1.959,1.959,0,0,0,1.938,1.976H-5.617a1.959,1.959,0,0,0,1.936-1.976v-8.161a1.958,1.958,0,0,0-1.936-1.975h-9.788l-1.341-2.04Z" transform="translate(23.794 -1257.647)" fill="url(#radial-gradient)"/>
</svg>
