<svg id="Group_23" data-name="Group 23" xmlns="http://www.w3.org/2000/svg" xmlns:xlink="http://www.w3.org/1999/xlink" width="19.368" height="17.878" viewBox="0 0 19.368 17.878">
  <defs>
    <radialGradient id="radial-gradient" cx="0.5" cy="0.5" r="0.5" gradientTransform="translate(0)" gradientUnits="objectBoundingBox">
      <stop offset="0" stop-color="#f7f7f7"/>
      <stop offset="1" stop-color="#dfdfdf"/>
    </radialGradient>
    <radialGradient id="radial-gradient-2" cx="0.5" cy="0.5" r="0.47" gradientTransform="translate(-0.072) scale(1.144 1)" xlink:href="#radial-gradient"/>
    <radialGradient id="radial-gradient-3" cx="0.5" cy="0.5" r="0.651" gradientTransform="translate(0.176) scale(0.647 1)" xlink:href="#radial-gradient"/>
    <radialGradient id="radial-gradient-4" cx="0.5" cy="0.5" r="0.437" gradientTransform="translate(-0.188) scale(1.375 1)" xlink:href="#radial-gradient"/>
  </defs>
  <path id="Path_20" data-name="Path 20" d="M-15.2,1206.441a2.61,2.61,0,0,1,2.607,2.607,2.611,2.611,0,0,1-2.607,2.607,2.611,2.611,0,0,1-2.607-2.607,2.61,2.61,0,0,1,2.607-2.607m0-1.49a4.1,4.1,0,0,0-4.1,4.1,4.1,4.1,0,0,0,4.1,4.1,4.1,4.1,0,0,0,4.1-4.1A4.1,4.1,0,0,0-15.2,1204.951Z" transform="translate(21.529 -1204.951)" fill="url(#radial-gradient)"/>
  <path id="Path_21" data-name="Path 21" d="M-3.991,1213.366a3.569,3.569,0,0,1-2.666-1.2l1.114-.989a2.079,2.079,0,0,0,1.552.7,2.076,2.076,0,0,0,2.074-2.075,2.076,2.076,0,0,0-2.074-2.073,2.064,2.064,0,0,0-1.409.552l-1.013-1.093a3.551,3.551,0,0,1,2.422-.949A3.567,3.567,0,0,1-.427,1209.8,3.568,3.568,0,0,1-3.991,1213.366Z" transform="translate(18.305 -1205.28)" fill="url(#radial-gradient-2)"/>
  <path id="Path_22" data-name="Path 22" d="M-10.375,1226.145a.745.745,0,0,1-.745-.745v-4.469a1.491,1.491,0,0,0-1.49-1.49h-6.7a1.492,1.492,0,0,0-1.49,1.49v4.469a.745.745,0,0,1-.745.745.745.745,0,0,1-.745-.745v-4.469a2.983,2.983,0,0,1,2.98-2.98h6.7a2.982,2.982,0,0,1,2.98,2.98v4.469A.745.745,0,0,1-10.375,1226.145Z" transform="translate(22.294 -1208.267)" fill="url(#radial-gradient-3)"/>
  <path id="Path_23" data-name="Path 23" d="M.92,1226.145a.745.745,0,0,1-.745-.745v-4.469a1.491,1.491,0,0,0-1.49-1.49H-3.549a.745.745,0,0,1-.745-.745.745.745,0,0,1,.745-.745h2.235a2.982,2.982,0,0,1,2.98,2.98v4.469A.745.745,0,0,1,.92,1226.145Z" transform="translate(17.702 -1208.267)" fill="url(#radial-gradient-4)"/>
</svg>
